<mxfile host="Electron" modified="2024-03-29T16:40:55.337Z" agent="Mozilla/5.0 (X11; Linux x86_64) AppleWebKit/537.36 (KHTML, like Gecko) draw.io/24.1.0 Chrome/120.0.6099.109 Electron/28.1.0 Safari/537.36" etag="Q0kpIX7ep6pEZ174AA4o" version="24.1.0" type="device">
  <diagram name="Page-1" id="LtFgvZ2PyBufopK0ysr0">
    <mxGraphModel dx="2074" dy="1230" grid="1" gridSize="10" guides="1" tooltips="1" connect="1" arrows="1" fold="1" page="1" pageScale="1" pageWidth="827" pageHeight="1169" math="0" shadow="0">
      <root>
        <mxCell id="0" />
        <mxCell id="1" parent="0" />
        <mxCell id="-TxwIAxBRVDznzUk3x58-1" value="&lt;b&gt;&lt;font color=&quot;#006600&quot; style=&quot;font-size: 24px;&quot;&gt;Node 1&lt;/font&gt;&lt;span style=&quot;font-size: 13px;&quot;&gt;&amp;nbsp;{&lt;/span&gt;&lt;/b&gt;&lt;div style=&quot;font-size: 13px;&quot;&gt;&lt;b style=&quot;&quot;&gt;&lt;font style=&quot;font-size: 13px;&quot;&gt;Neighbors: [&lt;/font&gt;&lt;/b&gt;&lt;/div&gt;&lt;div style=&quot;font-size: 13px;&quot;&gt;&lt;b&gt;&lt;font style=&quot;font-size: 13px;&quot;&gt;&lt;font color=&quot;#990000&quot; style=&quot;font-size: 13px;&quot;&gt;Node 2&lt;/font&gt;&lt;font style=&quot;font-size: 13px;&quot; color=&quot;#006600&quot;&gt; &lt;/font&gt;{&lt;/font&gt;&lt;/b&gt;&lt;/div&gt;&lt;div style=&quot;font-size: 13px;&quot;&gt;&lt;b&gt;&lt;font style=&quot;font-size: 13px;&quot;&gt;route-to: [&lt;/font&gt;&lt;/b&gt;&lt;/div&gt;&lt;div style=&quot;font-size: 13px;&quot;&gt;&lt;b&gt;&lt;font color=&quot;#990000&quot; style=&quot;font-size: 13px;&quot;&gt;Node 2&lt;/font&gt;&lt;/b&gt;&lt;b style=&quot;background-color: initial;&quot;&gt;,&amp;nbsp;&lt;/b&gt;&lt;b style=&quot;background-color: initial;&quot;&gt;&lt;font color=&quot;#000099&quot;&gt;Node 3&lt;/font&gt;&lt;/b&gt;&lt;/div&gt;&lt;div style=&quot;font-size: 13px;&quot;&gt;&lt;b style=&quot;background-color: initial;&quot;&gt;]&amp;nbsp;&lt;/b&gt;&lt;b style=&quot;background-color: initial;&quot;&gt;}&lt;/b&gt;&lt;b style=&quot;background-color: initial;&quot;&gt;&amp;nbsp;&lt;/b&gt;&lt;b style=&quot;background-color: initial;&quot;&gt;]&amp;nbsp;&lt;/b&gt;&lt;b style=&quot;background-color: initial;&quot;&gt;}&lt;/b&gt;&lt;/div&gt;" style="whiteSpace=wrap;html=1;aspect=fixed;fillColor=#fff2cc;strokeColor=#d6b656;" vertex="1" parent="1">
          <mxGeometry x="180" y="300" width="210" height="210" as="geometry" />
        </mxCell>
        <mxCell id="-TxwIAxBRVDznzUk3x58-2" value="&lt;b style=&quot;&quot;&gt;&lt;font color=&quot;#990000&quot; style=&quot;font-size: 24px;&quot;&gt;Node 2&lt;/font&gt;&lt;span style=&quot;font-size: 13px;&quot;&gt; {&lt;/span&gt;&lt;/b&gt;&lt;div style=&quot;font-size: 13px;&quot;&gt;&lt;div&gt;&lt;b&gt;Neighbors: [&lt;/b&gt;&lt;/div&gt;&lt;div&gt;&lt;b&gt;&lt;font color=&quot;#006600&quot;&gt;Node 1&lt;/font&gt;&amp;nbsp;{&lt;/b&gt;&lt;/div&gt;&lt;div&gt;&lt;b&gt;route-to: [&lt;/b&gt;&lt;/div&gt;&lt;div&gt;&lt;font style=&quot;background-color: initial;&quot;&gt;&lt;b style=&quot;background-color: initial;&quot;&gt;&lt;font color=&quot;#006600&quot;&gt;Node 1&lt;/font&gt;&lt;/b&gt;&lt;/font&gt;&lt;br&gt;&lt;/div&gt;&lt;div&gt;&lt;b&gt;]&amp;nbsp;&lt;/b&gt;&lt;b style=&quot;background-color: initial;&quot;&gt;},&lt;/b&gt;&lt;/div&gt;&lt;div&gt;&lt;div&gt;&lt;b style=&quot;background-color: initial;&quot;&gt;&lt;font color=&quot;#000099&quot;&gt;Node 3&lt;/font&gt;&lt;/b&gt;&lt;b&gt;&amp;nbsp;{&lt;/b&gt;&lt;/div&gt;&lt;div&gt;&lt;b&gt;route-to: [&lt;/b&gt;&lt;/div&gt;&lt;div&gt;&lt;b style=&quot;background-color: initial;&quot;&gt;&lt;font color=&quot;#000099&quot;&gt;Node 3&lt;/font&gt;&lt;/b&gt;&lt;br&gt;&lt;/div&gt;&lt;div&gt;&lt;b&gt;]&amp;nbsp;&lt;/b&gt;&lt;b style=&quot;background-color: initial;&quot;&gt;}&amp;nbsp;&lt;/b&gt;&lt;b style=&quot;background-color: initial;&quot;&gt;]&amp;nbsp;&lt;/b&gt;&lt;b style=&quot;background-color: initial;&quot;&gt;}&lt;/b&gt;&lt;/div&gt;&lt;/div&gt;&lt;/div&gt;" style="whiteSpace=wrap;html=1;aspect=fixed;fillColor=#fff2cc;strokeColor=#d6b656;" vertex="1" parent="1">
          <mxGeometry x="570" y="300" width="210" height="210" as="geometry" />
        </mxCell>
        <mxCell id="-TxwIAxBRVDznzUk3x58-3" value="&lt;b style=&quot;&quot;&gt;&lt;font color=&quot;#000099&quot; style=&quot;font-size: 24px;&quot;&gt;Node 3&lt;/font&gt;&lt;span style=&quot;font-size: 13px;&quot;&gt;&amp;nbsp;{&lt;/span&gt;&lt;/b&gt;&lt;div style=&quot;font-size: 13px;&quot;&gt;&lt;b style=&quot;&quot;&gt;&lt;font style=&quot;font-size: 13px;&quot;&gt;Neighbors: [&lt;/font&gt;&lt;/b&gt;&lt;/div&gt;&lt;div style=&quot;font-size: 13px;&quot;&gt;&lt;b style=&quot;background-color: initial;&quot;&gt;&lt;font color=&quot;#990000&quot;&gt;Node 2&lt;/font&gt;&lt;/b&gt;&lt;b&gt;&lt;font style=&quot;font-size: 13px;&quot;&gt;&amp;nbsp;{&lt;/font&gt;&lt;/b&gt;&lt;/div&gt;&lt;div style=&quot;font-size: 13px;&quot;&gt;&lt;b&gt;&lt;font style=&quot;font-size: 13px;&quot;&gt;route-to: [&lt;/font&gt;&lt;/b&gt;&lt;/div&gt;&lt;div style=&quot;font-size: 13px;&quot;&gt;&lt;b style=&quot;background-color: initial;&quot;&gt;&lt;font color=&quot;#990000&quot;&gt;Node 2&lt;/font&gt;&lt;/b&gt;&lt;b style=&quot;background-color: initial;&quot;&gt;,&amp;nbsp;&lt;/b&gt;&lt;b&gt;&lt;font color=&quot;#006600&quot;&gt;Node 1&lt;/font&gt;&lt;/b&gt;&lt;b style=&quot;background-color: initial;&quot;&gt;&amp;nbsp;&lt;/b&gt;&lt;/div&gt;&lt;div style=&quot;font-size: 13px;&quot;&gt;&lt;b style=&quot;background-color: initial;&quot;&gt;]&amp;nbsp;&lt;/b&gt;&lt;b style=&quot;background-color: initial;&quot;&gt;}&lt;/b&gt;&lt;b style=&quot;background-color: initial;&quot;&gt;&amp;nbsp;&lt;/b&gt;&lt;font style=&quot;background-color: initial;&quot;&gt;&lt;b style=&quot;background-color: initial;&quot;&gt;]&amp;nbsp;&lt;/b&gt;&lt;/font&gt;&lt;b style=&quot;background-color: initial;&quot;&gt;}&lt;/b&gt;&lt;/div&gt;" style="whiteSpace=wrap;html=1;aspect=fixed;fillColor=#fff2cc;strokeColor=#d6b656;" vertex="1" parent="1">
          <mxGeometry x="950" y="300" width="210" height="210" as="geometry" />
        </mxCell>
        <mxCell id="-TxwIAxBRVDznzUk3x58-4" value="" style="endArrow=classic;startArrow=classic;html=1;rounded=0;exitX=1;exitY=0.5;exitDx=0;exitDy=0;entryX=0;entryY=0.5;entryDx=0;entryDy=0;strokeWidth=3;strokeColor=#0000FF;" edge="1" parent="1" source="-TxwIAxBRVDznzUk3x58-1" target="-TxwIAxBRVDznzUk3x58-2">
          <mxGeometry width="50" height="50" relative="1" as="geometry">
            <mxPoint x="430" y="390" as="sourcePoint" />
            <mxPoint x="630" y="455" as="targetPoint" />
          </mxGeometry>
        </mxCell>
        <mxCell id="-TxwIAxBRVDznzUk3x58-5" value="" style="endArrow=classic;startArrow=classic;html=1;rounded=0;exitX=1;exitY=0.5;exitDx=0;exitDy=0;strokeWidth=3;strokeColor=#0000FF;entryX=0;entryY=0.5;entryDx=0;entryDy=0;" edge="1" parent="1" source="-TxwIAxBRVDznzUk3x58-2" target="-TxwIAxBRVDznzUk3x58-3">
          <mxGeometry width="50" height="50" relative="1" as="geometry">
            <mxPoint x="400" y="363" as="sourcePoint" />
            <mxPoint x="530" y="600" as="targetPoint" />
          </mxGeometry>
        </mxCell>
      </root>
    </mxGraphModel>
  </diagram>
</mxfile>
